Coordinates
version=1
nRows=32
nColumns=38
inDegrees=no

Units are S.I. units (second, meters, Newtons, ...)
If the header above contains a line with 'inDegrees', this indicates whether rotational values are in degrees (yes) or radians (no).

endheader
time	pelvis_tilt	pelvis_list	pelvis_rotation	pelvis_tx	pelvis_ty	pelvis_tz	hip_flexion_r	hip_adduction_r	hip_rotation_r	knee_angle_r	ankle_angle_r	subtalar_angle_r	mtp_angle_r	hip_flexion_l	hip_adduction_l	hip_rotation_l	knee_angle_l	ankle_angle_l	subtalar_angle_l	mtp_angle_l	lumbar_extension	lumbar_bending	lumbar_rotation	arm_flex_r	arm_add_r	arm_rot_r	elbow_flex_r	pro_sup_r	wrist_flex_r	wrist_dev_r	arm_flex_l	arm_add_l	arm_rot_l	elbow_flex_l	pro_sup_l	wrist_flex_l	wrist_dev_l
1.95	0.141809	-0.0437484	-0.00286038	0.810279	0.977933	-0.334806	-0.119139	0.111699	-0.0113821	-0.61036	0.417978	-0.0275998	0.000498375	0.336389	-0.02898	-0.0310499	-1.51958	-0.049613	0.00864625	-0.0660926	-0.41643	0.0189516	0.105263	-0.288829	-0.403906	-0.290111	1.68815	1.30522	-0.00754823	-0.0582694	-0.356025	-0.266495	-0.079157	1.44272	1.87779	0.0670611	-0.0451712
1.96	0.133056	-0.0249829	-0.00751922	0.811272	0.981693	-0.334506	-0.165221	0.0886604	-0.011219	-0.564241	0.385252	-0.0275998	0.000498375	0.367721	-0.00550296	-0.0396608	-1.46262	-0.0323322	0.00864625	-0.0660926	-0.403493	-0.00562162	0.111026	-0.285152	-0.407169	-0.28886	1.70381	1.30537	-0.00754823	-0.0582694	-0.400847	-0.266529	-0.102684	1.46623	1.86194	0.0670611	-0.0451712
1.97	0.123125	-0.00618865	-0.0117734	0.812577	0.985827	-0.33418	-0.208715	0.065312	-0.0146322	-0.51767	0.340238	-0.0275998	0.000498375	0.394444	0.0163095	-0.0507841	-1.3931	-0.0155479	0.00864625	-0.0660926	-0.389182	-0.0303687	0.114504	-0.283003	-0.408869	-0.286973	1.71986	1.30704	-0.00754823	-0.0582694	-0.446734	-0.266993	-0.125198	1.49486	1.84557	0.0670611	-0.0451712
1.98	0.11259	0.0119964	-0.0151722	0.814137	0.990232	-0.333874	-0.249148	0.0424835	-0.0217815	-0.472617	0.283869	-0.0275998	0.000498375	0.41553	0.0362595	-0.0631159	-1.31078	-6.68281e-05	0.00864625	-0.0660926	-0.374277	-0.0543751	0.115668	-0.281871	-0.4094	-0.28419	1.73556	1.3104	-0.00754823	-0.0582694	-0.492483	-0.266964	-0.146818	1.52606	1.8293	0.0670611	-0.0451712
1.99	0.102035	0.0289159	-0.0174524	0.81589	0.994793	-0.333619	-0.286161	0.0209985	-0.0323284	-0.431019	0.217695	-0.0275998	0.000498375	0.430054	0.0542782	-0.0751584	-1.21568	0.0134201	0.00864625	-0.0660926	-0.359531	-0.0767961	0.114768	-0.281398	-0.409052	-0.280491	1.75033	1.31559	-0.00754823	-0.0582694	-0.536886	-0.265718	-0.167616	1.55759	1.81334	0.0670611	-0.0451712
2	0.0919742	0.0438702	-0.0185629	0.817766	0.999368	-0.333424	-0.319424	0.00167224	-0.0454762	-0.39473	0.143833	-0.0275998	0.000498375	0.437414	0.0702294	-0.0854049	-1.10848	0.0245782	0.00864625	-0.0660926	-0.345589	-0.0968459	0.112296	-0.281373	-0.408011	-0.276068	1.76374	1.32265	-0.00754823	-0.0582694	-0.578763	-0.262848	-0.187536	1.5876	1.79762	0.0670611	-0.0451712
2.01	0.0828344	0.056155	-0.018645	0.81969	1.0038	-0.333274	-0.348613	-0.0147418	-0.060109	-0.365484	0.0648582	-0.0275998	0.000498375	0.437498	0.0838268	-0.0925099	-0.990862	0.0334966	0.00864625	-0.0660926	-0.332991	-0.113831	0.108823	-0.281619	-0.406408	-0.271157	1.77555	1.33141	-0.00754823	-0.0582694	-0.617086	-0.258274	-0.206448	1.61483	1.78211	0.0670611	-0.0451712
2.02	0.0750104	0.0651969	-0.017974	0.82158	1.00792	-0.333133	-0.373471	-0.0276585	-0.0750099	-0.344889	-0.0162963	-0.0275998	0.000498375	0.430725	0.094687	-0.0954507	-0.865817	0.0406055	0.00864625	-0.0660926	-0.322297	-0.127257	0.104625	-0.281717	-0.404407	-0.265665	1.78558	1.34145	-0.00754823	-0.0582694	-0.651229	-0.252111	-0.224443	1.63869	1.76708	0.0670611	-0.0451712
2.03	0.0688109	0.0705611	-0.0169197	0.823358	1.01155	-0.332956	-0.393766	-0.0367362	-0.0890198	-0.334362	-0.096566	-0.0275998	0.000498375	0.418121	0.102384	-0.093698	-0.737717	0.0464919	0.00864625	-0.0660926	-0.313978	-0.136804	0.0999367	-0.281303	-0.402182	-0.259477	1.79382	1.3521	-0.00754823	-0.0582694	-0.680721	-0.244749	-0.241511	1.65906	1.75308	0.0670611	-0.0451712
2.04	0.0645031	0.0720714	-0.0158666	0.824949	1.01457	-0.332705	-0.409325	-0.0419737	-0.101188	-0.335108	-0.172893	-0.0275998	0.000498375	0.401231	0.10661	-0.0873483	-0.61217	0.0517405	0.00864625	-0.0660926	-0.308433	-0.142409	0.0948916	-0.280088	-0.399933	-0.252448	1.80032	1.36251	-0.00754823	-0.0582694	-0.705247	-0.236762	-0.257564	1.67615	1.74094	0.0670611	-0.0451712
2.05	0.0622009	0.0698377	-0.0151774	0.826295	1.01685	-0.332372	-0.419935	-0.0437164	-0.110792	-0.34806	-0.242466	-0.0275998	0.000498375	0.382035	0.107263	-0.0771658	-0.495546	0.0567696	0.00864625	-0.0660926	-0.305788	-0.144169	0.089963	-0.278292	-0.397778	-0.244925	1.80532	1.3718	-0.00754823	-0.0582694	-0.724263	-0.229045	-0.271996	1.69012	1.73154	0.0670611	-0.0451712
2.06	0.0618246	0.064306	-0.0151259	0.827315	1.01828	-0.332001	-0.425348	-0.0426567	-0.117363	-0.373819	-0.302897	-0.0275998	0.000498375	0.362693	0.104599	-0.0644687	-0.394241	0.0617122	0.00864625	-0.0660926	-0.305871	-0.14237	0.0859571	-0.276677	-0.395721	-0.237802	1.80913	1.37928	-0.00754823	-0.0582694	-0.736969	-0.222739	-0.283677	1.7009	1.72552	0.0670611	-0.0451712
2.07	0.0632135	0.056324	-0.0157998	0.828004	1.01886	-0.331657	-0.425387	-0.0398243	-0.120787	-0.412615	-0.352335	-0.0275998	0.000498375	0.345152	0.0993811	-0.050858	-0.313838	0.0663674	0.00864625	-0.0660926	-0.308394	-0.137663	0.0834824	-0.276081	-0.393694	-0.232024	1.81201	1.38449	-0.00754823	-0.0582694	-0.742706	-0.218899	-0.2915	1.70845	1.72312	0.0670611	-0.0451712
2.08	0.0661549	0.0470707	-0.0170723	0.828359	1.01859	-0.331413	-0.419996	-0.0364774	-0.121317	-0.464224	-0.389623	-0.0275998	0.000498375	0.330843	0.0928521	-0.0378787	-0.258297	0.0702454	0.00864625	-0.0660926	-0.313025	-0.131048	0.0826964	-0.277152	-0.391586	-0.228306	1.81409	1.38733	-0.00754823	-0.0582694	-0.741157	-0.218298	-0.294664	1.71284	1.72404	0.0670611	-0.0451712
2.09	0.070391	0.0379067	-0.0186293	0.82839	1.01746	-0.331343	-0.409248	-0.0339337	-0.119543	-0.527899	-0.4144	-0.0275998	0.000498375	0.320519	0.0865485	-0.0266974	-0.229463	0.072812	0.00864625	-0.0660926	-0.319413	-0.12374	0.0832497	-0.280211	-0.38927	-0.227005	1.81531	1.38804	-0.00754823	-0.0582694	-0.732415	-0.221318	-0.292806	1.71422	1.72738	0.0670611	-0.0451712
2.1	0.0756279	0.0301672	-0.0200426	0.828118	1.01548	-0.331505	-0.393333	-0.0334049	-0.116288	-0.602354	-0.427074	-0.0275998	0.000498375	0.314259	0.082062	-0.0178879	-0.226958	0.0739155	0.00864625	-0.0660926	-0.32721	-0.116996	0.0843495	-0.285203	-0.386632	-0.228069	1.8154	1.38712	-0.00754823	-0.0582694	-0.716964	-0.227913	-0.286031	1.71282	1.73183	0.0670611	-0.0451712
2.11	0.0815624	0.024985	-0.0208757	0.827576	1.0126	-0.331932	-0.37254	-0.0358699	-0.112471	-0.685821	-0.428666	-0.0275998	0.000498375	0.311569	0.0808032	-0.0113999	-0.248434	0.0742178	0.00864625	-0.0660926	-0.336097	-0.111976	0.0849045	-0.291709	-0.383595	-0.231043	1.81395	1.3852	-0.00754823	-0.0582694	-0.695583	-0.237633	-0.27487	1.70892	1.7359	0.0670611	-0.0451712
2.12	0.0879009	0.0231614	-0.0208021	0.826756	1.00886	-0.332628	-0.347216	-0.0419903	-0.108946	-0.776165	-0.420587	-0.0275998	0.000498375	0.311569	0.083796	-0.00672435	-0.290062	0.0753902	0.00864625	-0.0660926	-0.345796	-0.109611	0.0837551	-0.299054	-0.380119	-0.235171	1.81041	1.38292	-0.00754823	-0.0582694	-0.669188	-0.24973	-0.260153	1.70274	1.73836	0.0670611	-0.0451712
2.13	0.0943722	0.025059	-0.0197117	0.825679	1.00433	-0.333554	-0.317722	-0.0520325	-0.106317	-0.870996	-0.404438	-0.0275998	0.000498375	0.31318	0.0915022	-0.00318386	-0.347109	0.0799035	0.00864625	-0.0660926	-0.356026	-0.110476	0.0800293	-0.306547	-0.37616	-0.239646	1.80423	1.38079	-0.00754823	-0.0582694	-0.638574	-0.263347	-0.242729	1.69431	1.73853	0.0670611	-0.0451712
2.14	0.100677	0.0305019	-0.0177902	0.824409	0.999148	-0.334641	-0.284318	-0.065772	-0.104736	-0.967762	-0.381882	-0.0275998	0.000498375	0.315291	0.103672	-0.000224594	-0.414392	0.090395	0.00864625	-0.0660926	-0.366344	-0.114611	0.0736891	-0.313934	-0.371584	-0.244115	1.795	1.37916	-0.00754823	-0.0582694	-0.604003	-0.277835	-0.222947	1.6833	1.7365	0.0670611	-0.0451712
2.15	0.106582	0.0388229	-0.0154704	0.823036	0.993603	-0.335786	-0.24721	-0.0824989	-0.10387	-1.06387	-0.354479	-0.0275998	0.000498375	0.316724	0.119398	0.00243891	-0.486618	0.1089	0.00864625	-0.0660926	-0.376228	-0.121594	0.0654268	-0.321359	-0.366172	-0.2486	1.78245	1.37811	-0.00754823	-0.0582694	-0.565305	-0.292795	-0.200756	1.66909	1.73312	0.0670611	-0.0451712
2.16	0.111961	0.0490856	-0.0133127	0.821598	0.98799	-0.336861	-0.206715	-0.101116	-0.103044	-1.15687	-0.323507	-0.0275998	0.000498375	0.316106	0.13734	0.00484697	-0.558705	0.136266	0.00864625	-0.0660926	-0.385384	-0.130789	0.056023	-0.328927	-0.359728	-0.252947	1.76649	1.37748	-0.00754823	-0.0582694	-0.522435	-0.307868	-0.17631	1.65137	1.72985	0.0670611	-0.0451712
2.17	0.116832	0.0602124	-0.0118697	0.820065	0.982561	-0.337743	-0.163268	-0.120231	-0.101439	-1.2445	-0.289937	-0.0275998	0.000498375	0.311943	0.155915	0.00692864	-0.626045	0.171906	0.00864625	-0.0660926	-0.393725	-0.141396	0.0462074	-0.336722	-0.352098	-0.256854	1.74725	1.37693	-0.00754823	-0.0582694	-0.475596	-0.322745	-0.150018	1.63029	1.72838	0.0670611	-0.0451712
2.18	0.121305	0.07118	-0.0115355	0.818382	0.977529	-0.338339	-0.117486	-0.138374	-0.0983968	-1.32479	-0.254471	-0.0275998	0.000498375	0.302738	0.173582	0.00867405	-0.684796	0.213984	0.00864625	-0.0660926	-0.401463	-0.152628	0.0361994	-0.344568	-0.343256	-0.259599	1.72508	1.37604	-0.00754823	-0.0582694	-0.425638	-0.336999	-0.122939	1.60677	1.73023	0.0670611	-0.0451712
2.19	0.125533	0.0810586	-0.0124563	0.816545	0.973109	-0.338591	-0.0700331	-0.154159	-0.0935984	-1.39605	-0.217721	-0.0275998	0.000498375	0.287296	0.188995	0.0102587	-0.732077	0.259833	0.00864625	-0.0660926	-0.408818	-0.163657	0.0259774	-0.352355	-0.333274	-0.260503	1.70067	1.3744	-0.00754823	-0.0582694	-0.373804	-0.350162	-0.0963662	1.58233	1.73631	0.0670611	-0.0451712
2.2	0.129574	0.0890825	-0.0145011	0.814611	0.969527	-0.338482	-0.0215624	-0.166451	-0.0871667	-1.45692	-0.180382	-0.0275998	0.000498375	0.264915	0.201135	0.0120771	-0.76606	0.306443	0.00864625	-0.0660926	-0.415865	-0.173615	0.0154352	-0.360194	-0.322317	-0.259196	1.67502	1.37178	-0.00754823	-0.0582694	-0.321553	-0.361747	-0.0715793	1.55884	1.7467	0.0670611	-0.0451712
2.21	0.133344	0.0946774	-0.0172977	0.812666	0.966967	-0.338053	0.0273138	-0.174479	-0.0796408	-1.5063	-0.143329	-0.0275998	0.000498375	0.235461	0.209371	0.0146764	-0.78591	0.350831	0.00864625	-0.0660926	-0.422461	-0.181634	0.00446833	-0.368452	-0.310648	-0.25574	1.6494	1.36809	-0.00754823	-0.0582694	-0.270415	-0.371246	-0.0496714	1.53827	1.76055	0.0670611	-0.0451712
2.22	0.136601	0.0974976	-0.0203262	0.810797	0.965531	-0.337403	0.0760152	-0.177872	-0.071861	-1.5434	-0.107638	-0.0275998	0.000498375	0.199315	0.213446	0.0186115	-0.79164	0.390249	0.00864625	-0.0660926	-0.428273	-0.186902	-0.0069688	-0.377673	-0.298608	-0.250596	1.62522	1.36353	-0.00754823	-0.0582694	-0.22185	-0.378167	-0.0314424	1.52247	1.77617	0.0670611	-0.0451712
2.23	0.139024	0.0974002	-0.0230417	0.809095	0.965229	-0.336653	0.123982	-0.176618	-0.064805	-1.56768	-0.0745029	-0.0275998	0.000498375	0.157269	0.213405	0.0242631	-0.783918	0.42226	0.00864625	-0.0660926	-0.432832	-0.188746	-0.0188325	-0.388455	-0.286587	-0.244499	1.6038	1.35852	-0.00754823	-0.0582694	-0.177127	-0.382099	-0.0173367	1.51288	1.79134	0.0670611	-0.0451712
2.24	0.140272	0.0944151	-0.0250152	0.807651	0.966011	-0.335911	0.170664	-0.171008	-0.0594133	-1.57884	-0.0450704	-0.0275998	0.000498375	0.110396	0.209492	0.0316549	-0.763897	0.444783	0.00864625	-0.0660926	-0.435626	-0.186731	-0.0309704	-0.401311	-0.274971	-0.238273	1.58623	1.35361	-0.00754823	-0.0582694	-0.137234	-0.382814	-0.00742827	1.51042	1.80382	0.0670611	-0.0451712
2.25	0.140065	0.0887109	-0.0260362	0.806551	0.967791	-0.335246	0.215502	-0.161545	-0.0564566	-1.5768	-0.0202502	-0.0275998	0.000498375	0.0599266	0.202052	0.0403559	-0.733077	0.456148	0.00864625	-0.0660926	-0.436185	-0.180719	-0.0431306	-0.416558	-0.264095	-0.232659	1.57322	1.34943	-0.00754823	-0.0582694	-0.102834	-0.380351	-0.0014427	1.51541	1.81185	0.0670611	-0.0451712
2.26	0.138227	0.0805461	-0.0261492	0.805865	0.970457	-0.334691	0.257917	-0.148857	-0.0564511	-1.56161	-0.000565064	-0.0275998	0.000498375	0.00714262	0.191461	0.0494874	-0.693224	0.455157	0.00864625	-0.0660926	-0.434171	-0.170871	-0.0550005	-0.434258	-0.254203	-0.228176	1.56502	1.34653	-0.00754823	-0.0582694	-0.0742689	-0.375055	0.00118271	1.52761	1.81436	0.0670611	-0.0451712
